<svg xmlns="http://www.w3.org/2000/svg" viewBox="0 0 1600 360" preserveAspectRatio="xMidYMid slice" width="1600" height="360">
  <defs>
    <linearGradient id="bg" x1="0" y1="0" x2="1" y2="1">
      <stop offset="0" stop-color="#fde8f2"/>
      <stop offset="1" stop-color="#f7d2e4"/>
    </linearGradient>
  </defs>
  <rect width="1600" height="360" fill="url(#bg)"/>
  <!-- clouds -->
  <g fill="#ffffff" opacity="0.7">
    <ellipse cx="220" cy="80" rx="70" ry="26"/>
    <ellipse cx="290" cy="80" rx="50" ry="20"/>
    <ellipse cx="1290" cy="70" rx="80" ry="28"/>
    <ellipse cx="1370" cy="70" rx="55" ry="22"/>
  </g>
  <!-- sun -->
  <circle cx="1450" cy="120" r="60" fill="#f7b733" opacity="0.65"/>
  <!-- hearts -->
  <g fill="#c4557a" opacity="0.55">
    <path d="M400 250c-30-26-60-10-60 18 0 26 60 56 60 56s60-30 60-56c0-28-30-44-60-18z"/>
    <path d="M1180 240c-22-19-44-7-44 13 0 19 44 41 44 41s44-22 44-41c0-20-22-32-44-13z"/>
  </g>
  <!-- baby bottle -->
  <g transform="translate(780 90)">
    <rect x="-34" y="40" width="68" height="150" rx="30" fill="#ffffff" stroke="#c4557a" stroke-width="6"/>
    <rect x="-22" y="14" width="44" height="34" rx="10" fill="#f7b9d2"/>
    <rect x="-12" y="-12" width="24" height="26" rx="10" fill="#e8a0bc"/>
    <line x1="-34" y1="92" x2="34" y2="92" stroke="#f0c8da" stroke-width="5"/>
    <line x1="-34" y1="118" x2="34" y2="118" stroke="#f0c8da" stroke-width="5"/>
  </g>
  <text x="800" y="320" text-anchor="middle" font-family="Heebo, Arial, sans-serif" font-size="30" font-weight="800" fill="#a83d62" direction="rtl">babysitter — שמירה חמה ובטוחה לילדים שלכם</text>
</svg>
